<mxfile host="app.diagrams.net" agent="Mozilla/5.0 (Windows NT 10.0; Win64; x64) AppleWebKit/537.36 (KHTML, like Gecko) Chrome/129.0.0.0 Safari/537.36" version="24.7.17">
  <diagram name="Page-1" id="VQlnx4K6SbTTtwn7qXJK">
    <mxGraphModel dx="1909" dy="656" grid="1" gridSize="10" guides="1" tooltips="1" connect="1" arrows="1" fold="1" page="1" pageScale="1" pageWidth="850" pageHeight="1100" background="#FFF2CC" math="0" shadow="0">
      <root>
        <mxCell id="0" />
        <mxCell id="1" parent="0" />
        <mxCell id="maCkLbIFlVlTs5_sAo36-1" value="API Gateway: Entry Point" style="outlineConnect=0;dashed=0;verticalLabelPosition=bottom;verticalAlign=top;align=center;html=1;shape=mxgraph.aws3.lambda_function;fillColor=#F58534;gradientColor=none;" vertex="1" parent="1">
          <mxGeometry x="120" y="60" width="69" height="72" as="geometry" />
        </mxCell>
        <mxCell id="maCkLbIFlVlTs5_sAo36-2" value="LoanProcessingQueue&lt;div&gt;Message storage and decoupling of services&lt;br&gt;&lt;/div&gt;" style="outlineConnect=0;dashed=0;verticalLabelPosition=bottom;verticalAlign=top;align=center;html=1;shape=mxgraph.aws3.sqs;fillColor=#3399FF;gradientColor=none;" vertex="1" parent="1">
          <mxGeometry x="340" y="49.5" width="76.5" height="93" as="geometry" />
        </mxCell>
        <mxCell id="maCkLbIFlVlTs5_sAo36-3" value="NotificationTopic&lt;div&gt;Broadcast notifications to multiple systems and teams&lt;br&gt;&lt;/div&gt;" style="outlineConnect=0;dashed=0;verticalLabelPosition=bottom;verticalAlign=top;align=center;html=1;shape=mxgraph.aws3.sns;fillColor=#D9A741;gradientColor=none;" vertex="1" parent="1">
          <mxGeometry x="560" y="630" width="76.5" height="76.5" as="geometry" />
        </mxCell>
        <mxCell id="maCkLbIFlVlTs5_sAo36-4" value="Compliance Service" style="aspect=fixed;sketch=0;html=1;dashed=0;whitespace=wrap;verticalLabelPosition=bottom;verticalAlign=top;fillColor=#009900;strokeColor=#ffffff;points=[[0.005,0.63,0],[0.1,0.2,0],[0.9,0.2,0],[0.5,0,0],[0.995,0.63,0],[0.72,0.99,0],[0.5,1,0],[0.28,0.99,0]];shape=mxgraph.kubernetes.icon2;prIcon=api" vertex="1" parent="1">
          <mxGeometry x="573.25" y="456.5" width="50" height="48" as="geometry" />
        </mxCell>
        <mxCell id="maCkLbIFlVlTs5_sAo36-5" value="Loan Processing Service" style="aspect=fixed;sketch=0;html=1;dashed=0;whitespace=wrap;verticalLabelPosition=bottom;verticalAlign=top;fillColor=#2875E2;strokeColor=#ffffff;points=[[0.005,0.63,0],[0.1,0.2,0],[0.9,0.2,0],[0.5,0,0],[0.995,0.63,0],[0.72,0.99,0],[0.5,1,0],[0.28,0.99,0]];shape=mxgraph.kubernetes.icon2;prIcon=api" vertex="1" parent="1">
          <mxGeometry x="573.25" y="72" width="50" height="48" as="geometry" />
        </mxCell>
        <mxCell id="maCkLbIFlVlTs5_sAo36-6" value="ComplianceCheckQueue&lt;div&gt;Message storage and decoupling of services&lt;br&gt;&lt;/div&gt;" style="outlineConnect=0;dashed=0;verticalLabelPosition=bottom;verticalAlign=top;align=center;html=1;shape=mxgraph.aws3.sqs;fillColor=#00CC66;gradientColor=none;" vertex="1" parent="1">
          <mxGeometry x="560" y="250" width="76.5" height="93" as="geometry" />
        </mxCell>
        <mxCell id="maCkLbIFlVlTs5_sAo36-9" style="edgeStyle=orthogonalEdgeStyle;rounded=0;orthogonalLoop=1;jettySize=auto;html=1;entryX=0;entryY=0.5;entryDx=0;entryDy=0;entryPerimeter=0;strokeWidth=3;" edge="1" parent="1" source="maCkLbIFlVlTs5_sAo36-1" target="maCkLbIFlVlTs5_sAo36-2">
          <mxGeometry relative="1" as="geometry" />
        </mxCell>
        <mxCell id="maCkLbIFlVlTs5_sAo36-10" style="edgeStyle=orthogonalEdgeStyle;rounded=0;orthogonalLoop=1;jettySize=auto;html=1;strokeColor=#009900;strokeWidth=3;" edge="1" parent="1" source="maCkLbIFlVlTs5_sAo36-2">
          <mxGeometry relative="1" as="geometry">
            <mxPoint x="572" y="96" as="targetPoint" />
          </mxGeometry>
        </mxCell>
        <mxCell id="maCkLbIFlVlTs5_sAo36-11" style="edgeStyle=orthogonalEdgeStyle;rounded=0;orthogonalLoop=1;jettySize=auto;html=1;entryX=0.5;entryY=0;entryDx=0;entryDy=0;entryPerimeter=0;strokeWidth=3;" edge="1" parent="1" source="maCkLbIFlVlTs5_sAo36-5" target="maCkLbIFlVlTs5_sAo36-6">
          <mxGeometry relative="1" as="geometry" />
        </mxCell>
        <mxCell id="maCkLbIFlVlTs5_sAo36-12" style="edgeStyle=orthogonalEdgeStyle;rounded=0;orthogonalLoop=1;jettySize=auto;html=1;entryX=0.5;entryY=0;entryDx=0;entryDy=0;entryPerimeter=0;strokeColor=#009900;strokeWidth=3;" edge="1" parent="1" source="maCkLbIFlVlTs5_sAo36-6" target="maCkLbIFlVlTs5_sAo36-4">
          <mxGeometry relative="1" as="geometry">
            <mxPoint x="598" y="440" as="targetPoint" />
          </mxGeometry>
        </mxCell>
        <mxCell id="maCkLbIFlVlTs5_sAo36-13" style="edgeStyle=orthogonalEdgeStyle;rounded=0;orthogonalLoop=1;jettySize=auto;html=1;entryX=0.5;entryY=0;entryDx=0;entryDy=0;entryPerimeter=0;strokeWidth=3;" edge="1" parent="1" source="maCkLbIFlVlTs5_sAo36-4" target="maCkLbIFlVlTs5_sAo36-3">
          <mxGeometry relative="1" as="geometry" />
        </mxCell>
        <mxCell id="maCkLbIFlVlTs5_sAo36-14" value="DeadLetterQueue&lt;div&gt;&lt;br&gt;&lt;/div&gt;" style="outlineConnect=0;dashed=0;verticalLabelPosition=bottom;verticalAlign=top;align=center;html=1;shape=mxgraph.aws3.sqs;fillColor=#FF0000;gradientColor=none;" vertex="1" parent="1">
          <mxGeometry x="340" y="250" width="76.5" height="93" as="geometry" />
        </mxCell>
        <mxCell id="maCkLbIFlVlTs5_sAo36-15" style="edgeStyle=orthogonalEdgeStyle;rounded=0;orthogonalLoop=1;jettySize=auto;html=1;entryX=0.5;entryY=0;entryDx=0;entryDy=0;entryPerimeter=0;strokeColor=#FF3333;strokeWidth=3;" edge="1" parent="1" source="maCkLbIFlVlTs5_sAo36-2" target="maCkLbIFlVlTs5_sAo36-14">
          <mxGeometry relative="1" as="geometry" />
        </mxCell>
        <mxCell id="maCkLbIFlVlTs5_sAo36-16" style="edgeStyle=orthogonalEdgeStyle;rounded=0;orthogonalLoop=1;jettySize=auto;html=1;entryX=1;entryY=0.5;entryDx=0;entryDy=0;entryPerimeter=0;strokeColor=#FF3333;strokeWidth=3;" edge="1" parent="1" source="maCkLbIFlVlTs5_sAo36-6" target="maCkLbIFlVlTs5_sAo36-14">
          <mxGeometry relative="1" as="geometry" />
        </mxCell>
        <mxCell id="maCkLbIFlVlTs5_sAo36-17" value="" style="outlineConnect=0;dashed=0;verticalLabelPosition=bottom;verticalAlign=top;align=center;html=1;shape=mxgraph.aws3.lambda_function;fillColor=#F58534;gradientColor=none;" vertex="1" parent="1">
          <mxGeometry x="-90" y="190" width="69" height="72" as="geometry" />
        </mxCell>
        <mxCell id="maCkLbIFlVlTs5_sAo36-18" value="&lt;div&gt;&lt;br&gt;&lt;/div&gt;" style="outlineConnect=0;dashed=0;verticalLabelPosition=bottom;verticalAlign=top;align=center;html=1;shape=mxgraph.aws3.sqs;fillColor=#3399FF;gradientColor=none;" vertex="1" parent="1">
          <mxGeometry x="-93.75" y="310" width="76.5" height="93" as="geometry" />
        </mxCell>
        <mxCell id="maCkLbIFlVlTs5_sAo36-19" value="&lt;div&gt;&lt;br&gt;&lt;/div&gt;" style="outlineConnect=0;dashed=0;verticalLabelPosition=bottom;verticalAlign=top;align=center;html=1;shape=mxgraph.aws3.sqs;fillColor=#00CC66;gradientColor=none;" vertex="1" parent="1">
          <mxGeometry x="-93.75" y="450" width="76.5" height="93" as="geometry" />
        </mxCell>
        <mxCell id="maCkLbIFlVlTs5_sAo36-20" value="" style="aspect=fixed;sketch=0;html=1;dashed=0;whitespace=wrap;verticalLabelPosition=bottom;verticalAlign=top;fillColor=#2875E2;strokeColor=#ffffff;points=[[0.005,0.63,0],[0.1,0.2,0],[0.9,0.2,0],[0.5,0,0],[0.995,0.63,0],[0.72,0.99,0],[0.5,1,0],[0.28,0.99,0]];shape=mxgraph.kubernetes.icon2;prIcon=api" vertex="1" parent="1">
          <mxGeometry x="40" y="190" width="50" height="48" as="geometry" />
        </mxCell>
        <mxCell id="maCkLbIFlVlTs5_sAo36-23" value="" style="aspect=fixed;sketch=0;html=1;dashed=0;whitespace=wrap;verticalLabelPosition=bottom;verticalAlign=top;fillColor=#009900;strokeColor=#ffffff;points=[[0.005,0.63,0],[0.1,0.2,0],[0.9,0.2,0],[0.5,0,0],[0.995,0.63,0],[0.72,0.99,0],[0.5,1,0],[0.28,0.99,0]];shape=mxgraph.kubernetes.icon2;prIcon=api" vertex="1" parent="1">
          <mxGeometry x="40" y="310" width="50" height="48" as="geometry" />
        </mxCell>
        <mxCell id="maCkLbIFlVlTs5_sAo36-24" value="&lt;div&gt;&lt;br&gt;&lt;/div&gt;" style="outlineConnect=0;dashed=0;verticalLabelPosition=bottom;verticalAlign=top;align=center;html=1;shape=mxgraph.aws3.sns;fillColor=#D9A741;gradientColor=none;" vertex="1" parent="1">
          <mxGeometry x="26.75" y="450" width="76.5" height="76.5" as="geometry" />
        </mxCell>
        <mxCell id="maCkLbIFlVlTs5_sAo36-26" style="edgeStyle=orthogonalEdgeStyle;rounded=0;orthogonalLoop=1;jettySize=auto;html=1;strokeColor=#009900;strokeWidth=3;" edge="1" parent="1">
          <mxGeometry relative="1" as="geometry">
            <mxPoint x="-54.333333333333485" y="690" as="sourcePoint" />
            <mxPoint x="-54.333333333333485" y="570" as="targetPoint" />
            <Array as="points">
              <mxPoint x="-54.333333333333485" y="660" />
              <mxPoint x="-54.333333333333485" y="660" />
            </Array>
          </mxGeometry>
        </mxCell>
        <mxCell id="maCkLbIFlVlTs5_sAo36-27" style="edgeStyle=orthogonalEdgeStyle;rounded=0;orthogonalLoop=1;jettySize=auto;html=1;strokeWidth=3;" edge="1" parent="1">
          <mxGeometry relative="1" as="geometry">
            <mxPoint x="10" y="570" as="sourcePoint" />
            <mxPoint x="10" y="690" as="targetPoint" />
            <Array as="points">
              <mxPoint x="10" y="595" />
              <mxPoint x="10" y="595" />
            </Array>
          </mxGeometry>
        </mxCell>
        <mxCell id="maCkLbIFlVlTs5_sAo36-28" style="edgeStyle=orthogonalEdgeStyle;rounded=0;orthogonalLoop=1;jettySize=auto;html=1;strokeColor=#FF3333;strokeWidth=3;" edge="1" parent="1">
          <mxGeometry relative="1" as="geometry">
            <mxPoint x="80" y="570" as="sourcePoint" />
            <mxPoint x="80" y="690" as="targetPoint" />
          </mxGeometry>
        </mxCell>
      </root>
    </mxGraphModel>
  </diagram>
</mxfile>
